<svg width="14" height="14" viewBox="0 0 14 14" fill="none" xmlns="http://www.w3.org/2000/svg">
<path d="M6.42188 4.08854H7.58854V5.25521H6.42188V4.08854ZM6.42188 6.42188H7.58854V9.92188H6.42188V6.42188ZM7.00521 1.17188C3.78521 1.17188 1.17188 3.78521 1.17188 7.00521C1.17188 10.2252 3.78521 12.8385 7.00521 12.8385C10.2252 12.8385 12.8385 10.2252 12.8385 7.00521C12.8385 3.78521 10.2252 1.17188 7.00521 1.17188ZM7.00521 11.6719C4.43271 11.6719 2.33854 9.57771 2.33854 7.00521C2.33854 4.43271 4.43271 2.33854 7.00521 2.33854C9.57771 2.33854 11.6719 4.43271 11.6719 7.00521C11.6719 9.57771 9.57771 11.6719 7.00521 11.6719Z" fill="#3C3C3C"/>
</svg>
